<svg width="24" height="24" viewBox="0 0 24 24" fill="none" xmlns="http://www.w3.org/2000/svg" class="navigation__cart-bold">
    <path fill-rule="evenodd" clip-rule="evenodd" d="M14.8539 6.04717C15.5132 6.75046 16.0218 7.78715 16.1616 9.20001H7.8384C7.97824 7.78715 8.48679 6.75046 9.14613 6.04717C9.92801 5.21315 10.9646 4.80001 12 4.80001C13.0354 4.80001 14.072 5.21315 14.8539 6.04717ZM12 3.20001C13.4646 3.20001 14.928 3.78687 16.0211 4.95286C16.9796 5.9752 17.6212 7.40655 17.7679 9.20001H21.5H22.3V10.8H21.5H20.724L19.796 20.0796C19.7551 20.4886 19.411 20.8 19 20.8H5C4.589 20.8 4.24487 20.4886 4.20397 20.0796L3.27601 10.8H2V9.20001H4H6.23207C6.37881 7.40655 7.02042 5.9752 7.97887 4.95286C9.07199 3.78687 10.5354 3.20001 12 3.20001ZM7 10.8H4.88399L5.72399 19.2H18.276L19.116 10.8H17H7ZM15.5 13C15.5 12.7239 15.2761 12.5 15 12.5C14.7239 12.5 14.5 12.7239 14.5 13V17C14.5 17.2762 14.7239 17.5 15 17.5C15.2761 17.5 15.5 17.2762 15.5 17V13ZM12 12.5C12.2761 12.5 12.5 12.7239 12.5 13V17C12.5 17.2762 12.2761 17.5 12 17.5C11.7239 17.5 11.5 17.2762 11.5 17V13C11.5 12.7239 11.7239 12.5 12 12.5ZM9.5 13C9.5 12.7239 9.27614 12.5 9 12.5C8.72386 12.5 8.5 12.7239 8.5 13V17C8.5 17.2762 8.72386 17.5 9 17.5C9.27614 17.5 9.5 17.2762 9.5 17V13Z" fill="#231F20"></path>
</svg>