<svg class="footer__icon" xmlns="http://www.w3.org/2000/svg" width="61" height="87" viewBox="0 0 61 87" fill="none">
  <path d="M56.1312 81.1432C65.2949 71.6413 58.666 58.6654 53.7273 57.8423C53.7273 57.8423 54.425 55.481 51.7559 53.7085C49.468 52.1995 46.8411 52.8378 46.8411 52.8378C46.8411 52.8378 47.0611 50.6186 45.7028 49.6845C44.3207 48.7266 42.4337 49.295 42.4337 49.295C42.4337 49.295 43.036 46.9335 41.3457 45.0678C39.7982 43.3695 37.0775 43.2438 37.0775 43.2438C37.0775 43.2438 38.8965 41.1 37.9257 37.78C37.0259 34.7228 34.6647 33.9535 34.6647 33.9535C34.6647 33.9535 36.3384 32.7163 36.6782 30.2825C36.9935 28.1351 35.8752 26.6527 35.8752 26.6527C35.8752 26.6527 38.4555 25.5608 38.7259 22.196C39.0203 18.7835 37.2571 17.4905 37.2571 17.4905C37.2571 17.4905 38.9313 15.9908 39.1233 15.5377C39.4593 14.7747 39.5807 13.8919 39.4872 13.0563C39.3235 11.5761 38.5868 10.2377 37.7543 8.99465C35.5183 5.71949 32.4456 3.03908 28.9173 1.26459C27.4392 0.497359 25.746 -0.127169 24.0747 0.107608C22.7377 0.295429 21.423 1.12774 20.8472 2.36754C20.5832 2.98749 20.223 3.94138 20.223 3.94138C20.223 3.94138 19.5085 3.29527 17.8141 3.19584C15.3322 3.02296 13.087 3.70989 11.1737 5.35232C9.76262 6.5663 8.80433 8.09162 8.29892 9.88055C7.81727 11.7173 7.88463 13.5314 8.50096 15.3468C8.69062 15.8962 8.69062 15.8962 8.69062 15.8962C5.1073 17.2245 1.75786 20.6059 0.93765 24.3274C0.117549 28.0012 1.51578 32.2769 4.08717 35.0039C4.08717 35.0039 2.89081 36.2661 2.48383 36.7902C0.30537 39.5538 -0.443516 43.3949 0.503285 46.7863C1.09502 48.912 2.3317 50.8243 3.99911 52.2603C5.57117 53.6483 8.3621 54.347 8.3621 54.347C7.32747 57.901 7.67846 60.9092 9.08149 63.1322C10.1278 64.7815 11.724 66.0742 13.5603 66.7468C14.2041 66.9869 15.7542 67.5634 15.7542 67.5634C15.7542 67.5634 15.5358 69.1143 15.5344 69.6871C15.4822 71.5965 16.1938 73.5315 17.5271 74.9189C18.5033 75.9475 19.8145 76.6428 21.222 76.9325C22.5579 77.222 25.6619 76.728 25.6619 76.728C25.6619 76.728 26.1578 79.0444 26.7994 80.2393C27.5361 81.6254 28.7029 82.7977 30.1094 83.517C32.5412 84.7161 35.6684 84.4847 37.8443 82.8429C40.3877 87.3122 49.0969 88.4543 56.1312 81.1432Z" fill="#1EE271"></path>
</svg>