<svg class="navigation__hover-emphasis" width="20" height="10" viewBox="0 0 20 10" fill="none" xmlns="http://www.w3.org/2000/svg">
 <path fill-rule="evenodd" clip-rule="evenodd" d="M18.2826 8.58146C18.3386 8.49953 18.3619 8.39768 18.3475 8.2978C18.3708 8.26707 18.3906 8.2336 18.4065 8.19805C18.4356 8.16072 18.4627 8.1217 18.4876 8.08116C18.5516 8.02539 18.6104 7.96329 18.6632 7.89569C18.6739 7.88213 18.6857 7.86961 18.6986 7.85828C18.7152 7.84373 18.7305 7.82755 18.7443 7.80997L18.7753 7.77724C18.7878 7.75535 18.7987 7.73241 18.8077 7.70865C18.8338 7.68025 18.8561 7.64828 18.8741 7.61358C18.9561 7.55496 19.023 7.47568 19.0688 7.38291C19.0782 7.37113 19.0886 7.36018 19.0997 7.35018L19.2163 7.22706C19.2292 7.21479 19.2415 7.20178 19.2531 7.18809C19.2845 7.16117 19.3132 7.13088 19.3387 7.0977L19.3387 7.09769C19.349 7.08678 19.3579 7.07743 19.377 7.07275C19.4602 7.01001 19.533 6.93312 19.5924 6.8452L19.613 6.82339C19.6801 6.73915 19.7244 6.6374 19.7414 6.52881C19.7687 6.49118 19.791 6.44975 19.8077 6.40569C19.922 6.28531 19.9893 6.12402 19.9965 5.9537C19.9997 5.92474 20.0007 5.89555 19.9995 5.86642L19.9891 5.60613C19.9849 5.52634 19.9637 5.44857 19.9272 5.37858C19.9179 5.30445 19.8938 5.23326 19.8564 5.16974C19.8446 5.08668 19.8164 5.00716 19.7737 4.93629C19.7311 4.86542 19.6748 4.80478 19.6086 4.75827L19.5452 4.69125C19.4843 4.64524 19.4158 4.61191 19.3431 4.59306C19.2911 4.54482 19.2304 4.50823 19.1646 4.48552C19.0972 4.44363 19.0225 4.41659 18.9449 4.40603C18.816 4.378 18.6824 4.3877 18.5584 4.43409C18.5087 4.45063 18.4612 4.47366 18.4168 4.50266C18.3288 4.53319 18.2493 4.58619 18.1853 4.65697C18.1068 4.69903 18.0343 4.75254 17.9699 4.81594C17.9157 4.84832 17.8643 4.88589 17.8165 4.92816C17.7718 4.96913 17.7299 5.0134 17.6912 5.06064L17.5894 5.16818L17.5599 5.19935C17.4878 5.23892 17.4248 5.29479 17.3755 5.363L17.3667 5.37235C17.2379 5.43035 17.1354 5.53869 17.0805 5.67471C17.0319 5.72767 16.9866 5.7839 16.9448 5.84304L16.908 5.89758C16.9009 5.90357 16.8944 5.91037 16.8888 5.91785C16.8147 5.9571 16.7513 6.01556 16.7044 6.08774L16.6646 6.12982C16.6308 6.16553 16.6039 6.21091 16.5737 6.26171L16.5613 6.28255C16.4875 6.34319 16.4211 6.41335 16.3637 6.4914C16.2722 6.55589 16.2009 6.64755 16.1587 6.75481L15.9669 6.98859C15.8618 7.04823 15.7756 7.1393 15.7191 7.25043C15.6896 7.28517 15.6625 7.32215 15.638 7.36109C15.6301 7.36855 15.6224 7.37629 15.615 7.38429C15.5145 7.46151 15.4349 7.56529 15.3843 7.68527L15.3843 7.68527C15.3533 7.718 15.3238 7.74918 15.3061 7.78658C15.2909 7.8047 15.2746 7.82187 15.2575 7.83801C15.1814 7.8991 15.1219 7.98027 15.0849 8.07336L15.0849 8.07337C15.0613 8.0983 15.0333 8.12792 15.0112 8.16999C14.9631 8.20702 14.9208 8.25172 14.8858 8.30247C14.8792 8.31102 14.8718 8.31885 14.8637 8.32585C14.8402 8.34779 14.8181 8.37121 14.7973 8.39599C14.7186 8.45108 14.6555 8.52752 14.6144 8.6173C14.5746 8.70736 14.5591 8.80733 14.5698 8.9061C14.5805 9.00488 14.6168 9.09858 14.6749 9.17683C14.7202 9.24345 14.7755 9.30188 14.8386 9.34983C14.8827 9.43028 14.9506 9.49325 15.0318 9.52907L15.1587 9.5883C15.227 9.62131 15.2995 9.64338 15.374 9.65376C15.4438 9.73131 15.5319 9.78781 15.6292 9.81741L15.6601 9.82831C15.6998 9.84124 15.7402 9.85165 15.7811 9.85949C15.8599 9.92934 15.9553 9.97515 16.0569 9.99197C16.0984 9.99825 16.1404 10.0009 16.1823 9.99976L16.231 9.99509L16.3017 9.98573C16.3257 9.98134 16.3494 9.97509 16.3726 9.96703C16.419 9.95117 16.4639 9.93081 16.5068 9.90624C16.563 9.87369 16.6135 9.83096 16.6557 9.78C16.6598 9.77397 16.6648 9.76871 16.6705 9.76442C16.741 9.75999 16.8108 9.74691 16.8785 9.72545C17.0263 9.7081 17.1654 9.64276 17.2767 9.53842C17.31 9.50931 17.3406 9.47696 17.3681 9.44178C17.4232 9.38764 17.4682 9.32316 17.5009 9.25164C17.5279 9.21918 17.5521 9.18423 17.5732 9.14722L17.6012 9.0989C17.6158 9.07034 17.6321 9.04276 17.6499 9.0163C17.6988 8.97482 17.7434 8.92778 17.7826 8.87603C17.8245 8.84047 17.8625 8.80023 17.8962 8.75602C17.9253 8.75749 17.9544 8.75593 17.9832 8.75135C18.0419 8.74842 18.0993 8.73164 18.1511 8.70224C18.2029 8.67285 18.2479 8.63158 18.2826 8.58146ZM0.841461 4.3312C0.793402 4.34523 0.746538 4.36347 0.701347 4.38574C0.563486 4.45545 0.447699 4.56589 0.368006 4.7037C0.302351 4.77829 0.253889 4.8679 0.226406 4.96554C0.166689 5.02153 0.117199 5.08862 0.0803871 5.16348C0.0267849 5.24533 -0.00118828 5.34288 0.000400543 5.4424C0.00198746 5.54193 0.0330544 5.63843 0.0892353 5.71833L0.226406 5.9038L0.335552 6.0503C0.361984 6.08847 0.393826 6.12212 0.429951 6.15005L0.460928 6.18278C0.481356 6.25167 0.514753 6.31549 0.559109 6.37039C0.603466 6.4253 0.657856 6.47016 0.719038 6.50229C0.76524 6.55728 0.814493 6.60932 0.866533 6.65815L0.921106 6.71581C0.93857 6.7388 0.958357 6.75971 0.980108 6.77816C1.01666 6.87173 1.08013 6.95079 1.16153 7.00416C1.18802 7.03283 1.21774 7.05795 1.25003 7.07896L1.3459 7.20832C1.3685 7.2387 1.39091 7.26928 1.41327 7.29977C1.45514 7.35688 1.49682 7.41373 1.53912 7.4686C1.58229 7.52055 1.62861 7.56949 1.67777 7.6151L1.70727 7.64628C1.72927 7.71532 1.76426 7.77894 1.81014 7.83331C1.85602 7.88768 1.91183 7.93169 1.97423 7.96267L2.02438 8.01567C2.05858 8.06622 2.10043 8.11045 2.14827 8.14658C2.17145 8.17897 2.19876 8.20782 2.2294 8.23231C2.26178 8.31193 2.31565 8.37968 2.38427 8.42712C2.41342 8.46964 2.44877 8.50699 2.489 8.53779L2.5185 8.56896C2.54427 8.6058 2.57509 8.63836 2.60995 8.66559C2.6643 8.70606 2.71604 8.75032 2.76481 8.79808L2.79284 8.82769C2.82212 8.91949 2.88183 8.99699 2.96098 9.04588C2.99284 9.0834 3.02958 9.11594 3.07012 9.14251C3.14235 9.24899 3.24456 9.32863 3.36217 9.37007C3.37645 9.37666 3.39126 9.38188 3.40643 9.38565C3.43802 9.40531 3.47168 9.421 3.50672 9.43241L3.55097 9.47916C3.59578 9.60307 3.68062 9.70624 3.79048 9.77042C3.90034 9.83459 4.02814 9.85564 4.15127 9.82984C4.19928 9.83516 4.24756 9.83724 4.29582 9.83607C4.47144 9.83081 4.64131 9.76881 4.78256 9.6584C4.89328 9.57701 4.97771 9.46168 5.02445 9.32798C5.06725 9.28235 5.10352 9.23037 5.13212 9.17369C5.17104 9.09668 5.20504 9.01702 5.2339 8.93523C5.26715 8.84039 5.27229 8.7371 5.24864 8.6391L5.26487 8.62195C5.32239 8.56166 5.3657 8.48794 5.39132 8.40673C5.41694 8.32551 5.42415 8.23907 5.41237 8.15437C5.42274 8.09711 5.4218 8.03821 5.40961 7.98135C5.39743 7.9245 5.37428 7.87091 5.34157 7.82396L5.2752 7.75382L5.27372 7.70551C5.27031 7.6223 5.24363 7.54202 5.19703 7.47484C5.18544 7.45143 5.17211 7.42902 5.1572 7.40782C5.12456 7.25679 5.03787 7.12498 4.9153 7.04C4.89505 6.97727 4.85944 6.92133 4.81206 6.8779C4.79538 6.8154 4.76585 6.75757 4.72556 6.70853C4.68528 6.6595 4.63523 6.62046 4.57901 6.59424L4.54362 6.57866C4.50888 6.52666 4.46598 6.48132 4.41677 6.44462C4.38691 6.39793 4.34886 6.35772 4.30467 6.32617C4.28853 6.30589 4.27076 6.28712 4.25158 6.27006C4.23162 6.20095 4.1959 6.13807 4.14754 6.08698C4.09919 6.03588 4.03969 5.99813 3.97428 5.97705C3.93299 5.91667 3.87961 5.86665 3.81794 5.83054C3.78317 5.78641 3.74058 5.74988 3.69256 5.723C3.63032 5.64752 3.54974 5.59146 3.45952 5.5609C3.44715 5.51281 3.42774 5.46706 3.402 5.42531C3.38685 5.40606 3.37007 5.38833 3.35186 5.37232C3.34566 5.35014 3.33725 5.32872 3.32677 5.30841C3.31359 5.24055 3.28692 5.17642 3.24853 5.12027C3.21013 5.06412 3.16088 5.01722 3.10405 4.98268C3.08214 4.92084 3.04677 4.86532 3.0008 4.82059C2.97996 4.75154 2.94378 4.68877 2.89528 4.63753C2.84678 4.58628 2.78738 4.54804 2.72204 4.52602C2.6868 4.4735 2.64342 4.42765 2.59372 4.39042C2.57437 4.36527 2.55262 4.34229 2.52882 4.32184C2.49877 4.29506 2.46555 4.27254 2.43 4.25483C2.35215 4.16663 2.24995 4.10664 2.13796 4.08339L2.06864 4.06C2.01623 4.04599 1.96302 4.03558 1.90934 4.02883C1.79912 4.01718 1.68781 4.02884 1.58189 4.06312L1.50225 4.08806C1.36095 4.11588 1.22492 4.168 1.09959 4.24236C1.00995 4.25869 0.923006 4.28861 0.841461 4.3312ZM9.50828 0.886778C9.54319 0.887144 9.57791 0.89239 9.61153 0.902369C9.7066 0.841681 9.81946 0.820036 9.92864 0.841573C10.0571 0.865061 10.1716 0.941249 10.2472 1.05354L10.2767 1.08471C10.3301 1.1094 10.3802 1.14136 10.4257 1.17979C10.4748 1.21275 10.5199 1.25201 10.5599 1.29668C10.6111 1.31644 10.6601 1.34204 10.7059 1.37305C10.7837 1.42499 10.85 1.49408 10.9001 1.57559C10.9503 1.6571 10.9832 1.74911 10.9965 1.8453L11.0024 1.88582C11.0046 1.91279 11.0046 1.9399 11.0024 1.96686C11.0024 1.99621 10.9994 2.02546 10.9936 2.05414C11.0149 2.10114 11.0303 2.15093 11.0393 2.20221C11.0444 2.24302 11.0459 2.28425 11.0437 2.32534C11.0675 2.40108 11.0761 2.48124 11.0688 2.56068C11.097 2.65207 11.1061 2.74887 11.0953 2.84434C11.1351 2.97439 11.133 3.11467 11.0894 3.24334C11.1008 3.3156 11.1087 3.38843 11.113 3.46155C11.1159 3.50586 11.1134 3.55036 11.1057 3.59402L11.1086 3.66883C11.1311 3.73379 11.143 3.80229 11.144 3.87145C11.1435 3.9344 11.134 3.99691 11.116 4.05692C11.1352 4.1405 11.1422 4.22671 11.1366 4.31253C11.1851 4.44939 11.1841 4.60036 11.1337 4.73645C11.1535 4.84221 11.1565 4.95072 11.1425 5.05752C11.1489 5.09509 11.1523 5.13314 11.1529 5.1713C11.1654 5.22112 11.1713 5.27251 11.1706 5.32404C11.1837 5.39904 11.1812 5.47617 11.1632 5.55003L11.1661 5.60303C11.1786 5.67076 11.1825 5.73993 11.1779 5.80876C11.1988 5.94659 11.1704 6.08771 11.0983 6.20464C11.1061 6.26611 11.1076 6.32829 11.1027 6.3901C11.1063 6.46393 11.0973 6.53784 11.0762 6.6083C11.0522 6.68038 11.0139 6.74625 10.9641 6.80156C10.9597 6.81321 10.9563 6.8252 10.9537 6.83741C10.9525 6.84225 10.9512 6.84908 10.9499 6.85664C10.9463 6.87584 10.942 6.89973 10.9346 6.90756C10.9099 6.97942 10.8724 7.04558 10.8239 7.10238L10.793 7.17251L10.7797 7.23329C10.7661 7.29936 10.74 7.36186 10.703 7.41703C10.666 7.4722 10.6188 7.5189 10.5643 7.55435C10.5496 7.62159 10.5225 7.68513 10.4847 7.74138C10.4092 7.85709 10.2947 7.93794 10.1646 7.96738C10.1438 7.98036 10.1221 7.99182 10.0997 8.00167C9.99919 8.07176 9.8879 8.12291 9.77082 8.15286L9.7192 8.17C9.71478 8.1736 9.71081 8.17779 9.7074 8.18247C9.55415 8.27968 9.37105 8.30987 9.19706 8.26663C9.16341 8.25964 9.13036 8.24973 9.09824 8.23702C8.90042 8.1755 8.72369 8.05478 8.58938 7.88945C8.54431 7.82447 8.51229 7.75045 8.4953 7.67191C8.4783 7.59338 8.47669 7.51201 8.49055 7.43279C8.476 7.34551 8.47751 7.25607 8.49498 7.16939C8.44063 7.10212 8.40138 7.02274 8.38018 6.93718C8.35898 6.85162 8.35637 6.7621 8.37255 6.67532C8.37457 6.66871 8.37605 6.66193 8.37698 6.65506C8.37336 6.60085 8.37633 6.54638 8.38583 6.49297C8.38542 6.48991 8.38477 6.48611 8.38403 6.48172C8.38211 6.47044 8.37952 6.45523 8.37846 6.43841C8.37121 6.34417 8.38174 6.24934 8.40944 6.15943C8.40814 6.13534 8.40517 6.11138 8.40058 6.08774C8.37633 6.01587 8.36727 5.93927 8.37404 5.8633L8.39468 5.63886C8.39223 5.61089 8.39125 5.5828 8.39174 5.55471L8.39174 5.4986C8.39004 5.38815 8.39595 5.27772 8.40944 5.16818C8.40626 5.11455 8.40873 5.06071 8.41681 5.00765C8.4048 4.9686 8.3964 4.9284 8.39174 4.88764C8.37745 4.82439 8.37347 4.75904 8.37994 4.69438C8.3669 4.62982 8.3649 4.5633 8.37404 4.49799C8.37775 4.46124 8.37923 4.42429 8.37846 4.38734C8.3782 4.29074 8.3856 4.19429 8.40058 4.099C8.3667 3.9895 8.3576 3.87312 8.37404 3.75923L8.37698 3.70935C8.37846 3.67038 8.38141 3.62675 8.38731 3.57999C8.37294 3.48082 8.37746 3.37961 8.40058 3.28231L8.40648 3.11398L8.41239 2.98618C8.41091 2.85682 8.42418 2.71498 8.44041 2.57627L8.44188 2.54977C8.44455 2.48699 8.45145 2.42449 8.46253 2.36275C8.46284 2.36048 8.46308 2.35787 8.46334 2.35509C8.46433 2.34453 8.46554 2.33151 8.47138 2.32534C8.46815 2.2308 8.47809 2.13628 8.50088 2.0448C8.51203 2.00762 8.52042 1.96958 8.52596 1.93102C8.52989 1.91129 8.53333 1.89311 8.53656 1.87609C8.543 1.84202 8.54858 1.81258 8.55546 1.78452C8.58552 1.66585 8.63278 1.55281 8.69558 1.44942C8.73497 1.38808 8.78502 1.3352 8.84307 1.29356L9.01712 1.16576C9.045 1.14478 9.07522 1.12751 9.10709 1.11433L9.14396 1.07536C9.18449 1.01377 9.23922 0.964128 9.30297 0.931127C9.36672 0.898126 9.43739 0.882861 9.50828 0.886778Z" fill="#1EE271"></path>
</svg>

