<svg width="40" height="40" viewBox="0 0 40 40" fill="none" xmlns="http://www.w3.org/2000/svg">
<circle cx="20" cy="20" r="20" fill="#231F20"/>
<path d="M30.0953 26.8852C31.7008 23.4665 28.6425 20.6966 27.2092 20.9691C27.2092 20.9691 27.1749 20.2762 26.2734 20.0728C25.5016 19.9011 24.842 20.3303 24.842 20.3303C24.842 20.3303 24.6903 19.7223 24.2285 19.6103C23.7578 19.4944 23.2946 19.8317 23.2946 19.8317C23.2946 19.8317 23.2341 19.1482 22.5921 18.823C22.0054 18.528 21.2471 18.7646 21.2471 18.7646C21.2471 18.7646 21.5412 18.0179 20.9576 17.2373C20.4186 16.5191 19.6974 16.5501 19.6974 16.5501C19.6974 16.5501 20.0383 16.0573 19.8989 15.3807C19.7802 14.7823 19.3318 14.5016 19.3318 14.5016C19.3318 14.5016 19.9352 13.9573 19.6878 13.0417C19.4425 12.1112 18.8353 11.9446 18.8353 11.9446C18.8353 11.9446 19.1512 11.3824 19.1606 11.2436C19.1798 11.0088 19.1287 10.7636 19.0232 10.5521C18.8369 10.1774 18.5069 9.89698 18.1598 9.65121C17.2335 9.00791 16.1345 8.6047 14.9971 8.48597C14.5183 8.42992 13.9942 8.4329 13.5582 8.66068C13.2094 8.84291 12.9283 9.19315 12.8889 9.57773C12.8757 9.76766 12.8681 10.0553 12.8681 10.0553C12.8681 10.0553 12.6103 9.95556 12.1361 10.0974C11.4388 10.2979 10.8885 10.702 10.5207 11.3256C10.2496 11.7862 10.1326 12.2841 10.1649 12.8068C10.2083 13.3397 10.4001 13.8122 10.7427 14.2305C10.8472 14.3569 10.8472 14.3569 10.8472 14.3569C9.99123 15.0631 9.39562 16.2885 9.52628 17.3528C9.6524 18.4045 10.4445 19.3951 11.4105 19.8604C11.4105 19.8604 11.2029 20.3124 11.1414 20.4912C10.8079 21.4373 10.9696 22.5261 11.5534 23.328C11.9188 23.8307 12.4408 24.2132 13.0354 24.4271C13.5992 24.6378 14.4315 24.5455 14.4315 24.5455C14.4874 25.5868 14.8711 26.3466 15.4684 26.7946C15.913 27.1264 16.4744 27.3096 17.0423 27.3051C17.2419 27.3047 17.7222 27.3032 17.7222 27.3032C17.7222 27.3032 17.8105 27.7345 17.8648 27.8859C18.033 28.3954 18.4131 28.8359 18.9114 29.0701C19.2775 29.245 19.7035 29.2986 20.1173 29.2355C20.5114 29.1795 21.3157 28.7411 21.3157 28.7411C21.3157 28.7411 21.673 29.3038 21.9632 29.5557C22.2977 29.8488 22.7298 30.0427 23.1844 30.0932C23.966 30.1687 24.8017 29.7974 25.2416 29.1479C26.3664 30.0761 28.8644 29.514 30.0953 26.8852Z" fill="#1ee271"/>
</svg>
