<svg width="24" height="24" viewBox="0 0 24 24" fill="none" xmlns="http://www.w3.org/2000/svg" class="navigation__account-bold">
<path fill-rule="evenodd" clip-rule="evenodd" d="M10.4441 6.2443C10.8567 5.83172 11.4162 5.59994 11.9997 5.59994C12.5832 5.59994 13.1428 5.83172 13.5553 6.2443C13.952 6.64095 14.1997 7.27853 14.1997 7.88565C14.1997 8.44426 13.9865 8.92444 13.5553 9.35557C13.1428 9.76815 12.5832 9.99994 11.9997 9.99994C11.4162 9.99994 10.8567 9.76815 10.4441 9.35557C10.0129 8.92444 9.79971 8.44426 9.79971 7.88565C9.79971 7.27853 10.0474 6.64095 10.4441 6.2443ZM11.9997 3.99994C10.9919 3.99994 10.0253 4.40029 9.3127 5.11293C8.58413 5.8415 8.19971 6.90147 8.19971 7.88565C8.19971 8.91834 8.61861 9.79286 9.3127 10.4869C10.0253 11.1996 10.9919 11.5999 11.9997 11.5999C13.0075 11.5999 13.9741 11.1996 14.6867 10.4869C15.3808 9.79286 15.7997 8.91834 15.7997 7.88565C15.7997 6.90147 15.4153 5.8415 14.6867 5.11293C13.9741 4.40029 13.0075 3.99994 11.9997 3.99994ZM18.8628 19.1999H5.1708C5.33923 18.5237 5.70404 17.5963 6.39053 16.7294C7.39355 15.4629 9.10263 14.2999 11.9997 14.2999C15.1577 14.2999 16.8501 15.4765 17.7778 16.7129C18.4242 17.5745 18.7311 18.5092 18.8628 19.1999ZM11.9997 12.6999C8.59991 12.6999 6.43399 14.0974 5.13623 15.7361C3.87394 17.33 3.44971 19.13 3.44971 19.9999C3.44971 20.2121 3.53399 20.4156 3.68402 20.5656C3.83405 20.7157 4.03753 20.7999 4.24971 20.7999H19.7497C20.1915 20.7999 20.5497 20.4418 20.5497 19.9999C20.5497 19.1821 20.2754 17.3758 19.0576 15.7527C17.8055 14.0838 15.6229 12.6999 11.9997 12.6999Z" fill="#231F20"></path>
</svg>
